<?xml version="1.0" standalone="no"?>
<!DOCTYPE svg PUBLIC "-//W3C//DTD SVG 20010904//EN"
 "http://www.w3.org/TR/2001/REC-SVG-20010904/DTD/svg10.dtd">
<svg version="1.0" xmlns="http://www.w3.org/2000/svg"
 width="256.000000pt" height="256.000000pt" viewBox="0 0 256.000000 256.000000"
 preserveAspectRatio="xMidYMid meet">
<metadata>
Created by potrace 1.14, written by Peter Selinger 2001-2017
</metadata>
<g transform="translate(0.000000,256.000000) scale(0.100000,-0.100000)"
fill="#000000" stroke="none">
<path d="M1090 2447 c-102 -51 -188 -96 -192 -102 -5 -7 -8 -7 -8 0 0 7 -3 7
-8 0 -4 -5 -36 -23 -72 -40 -36 -16 -68 -34 -71 -38 -3 -5 -9 -8 -13 -8 -3 1
-134 -63 -290 -141 l-283 -141 0 -694 c0 -496 3 -693 11 -694 6 -1 14 -1 19 0
4 0 7 -4 7 -10 0 -5 5 -7 10 -4 6 3 10 2 10 -3 0 -9 50 -32 67 -31 3 1 9 -3
12 -9 7 -10 137 -74 147 -72 4 1 10 -2 13 -7 7 -11 197 -106 207 -103 4 1 10
-2 13 -7 9 -12 464 -239 473 -235 5 1 8 -3 8 -9 0 -5 5 -7 10 -4 5 3 10 2 10
-3 0 -10 58 -36 73 -33 4 0 7 -3 7 -8 0 -34 72 -3 600 262 l565 283 1 684 c0
406 -4 690 -9 697 -5 7 -13 10 -18 7 -5 -3 -12 2 -15 10 -3 9 -11 16 -18 16
-6 0 -55 22 -109 49 -53 28 -97 47 -97 43 0 -4 -4 -2 -8 3 -12 16 -69 45 -75
38 -4 -3 -9 2 -13 11 -3 9 -11 16 -18 16 -6 0 -55 22 -109 49 -53 28 -97 47
-97 43 0 -4 -4 -2 -8 3 -10 14 -332 176 -332 167 0 -4 -4 -2 -8 5 -8 12 -123
68 -134 65 -5 -1 -8 2 -8 7 0 7 -58 34 -64 30 -1 0 -84 -42 -186 -92z"/>
</g>
</svg>
